<?xml version="1.0" encoding="UTF-8" standalone="no"?>
<!-- Created with Inkscape (http://www.inkscape.org/) -->

<svg
   width="160mm"
   height="70mm"
   viewBox="0 0 160 70"
   version="1.1"
   id="svg1"
   inkscape:version="1.4.2 (ebf0e940, 2025-05-08)"
   sodipodi:docname="TCTrack_Logo.svg"
   inkscape:export-filename="TCTrack_Logo_INIGO_LoRes.png"
   inkscape:export-xdpi="15.875"
   inkscape:export-ydpi="15.875"
   xmlns:inkscape="http://www.inkscape.org/namespaces/inkscape"
   xmlns:sodipodi="http://sodipodi.sourceforge.net/DTD/sodipodi-0.dtd"
   xmlns="http://www.w3.org/2000/svg"
   xmlns:svg="http://www.w3.org/2000/svg">
  <sodipodi:namedview
     id="namedview1"
     pagecolor="#505050"
     bordercolor="#eeeeee"
     borderopacity="1"
     inkscape:showpageshadow="0"
     inkscape:pageopacity="0"
     inkscape:pagecheckerboard="0"
     inkscape:deskcolor="#505050"
     inkscape:document-units="mm"
     inkscape:zoom="0.69888958"
     inkscape:cx="14.308412"
     inkscape:cy="114.4673"
     inkscape:window-width="1904"
     inkscape:window-height="1003"
     inkscape:window-x="12"
     inkscape:window-y="37"
     inkscape:window-maximized="0"
     inkscape:current-layer="g4" />
  <defs
     id="defs1" />
  <g
     inkscape:label="Layer 1"
     inkscape:groupmode="layer"
     id="layer1"
     transform="translate(-89.017894,-2.1398618)">
    <g
       id="g6"
       transform="matrix(5.5463488,0,0,5.5463488,-347.06878,-562.2407)">
      <rect
         style="fill:#808080;stroke:#000000;stroke-width:0.507627;stroke-opacity:1"
         id="rect1-9-9-8-9-0-6"
         width="28.340179"
         height="12.113289"
         x="78.879715"
         y="102.01095"
         rx="0.99980348"
         ry="1.0225171" />
      <g
         id="g5">
        <g
           id="text1-9-9-1-9-2-0"
           style="font-size:4.23333px;font-family:'Maple Mono NF';-inkscape-font-specification:'Maple Mono NF, Normal';letter-spacing:0.889px;fill:#000000;fill-opacity:1;stroke:none;stroke-width:0.5;stroke-dasharray:none"
           aria-label="TCTrack"
           transform="translate(31.41693,75.948965)">
          <path
             style="font-size:4.93889px;fill:#000000;fill-opacity:1;stroke:none;stroke-width:0.5;stroke-dasharray:none"
             d="m 50.723227,30.649814 h -0.765528 q -0.09878,0 -0.162983,-0.05927 -0.05927,-0.06421 -0.05927,-0.162983 0,-0.09878 0.05927,-0.158045 0.06421,-0.0642 0.162983,-0.0642 h 1.975556 q 0.09878,0 0.158044,0.0642 0.06421,0.05927 0.06421,0.158045 0,0.09878 -0.06421,0.162983 -0.05927,0.05927 -0.158044,0.05927 h -0.765528 v 2.988028 q 0,0.113595 -0.05433,0.167922 -0.05433,0.05433 -0.167922,0.05433 -0.113595,0 -0.167922,-0.05433 -0.05433,-0.05433 -0.05433,-0.167922 z m 2.889252,1.348317 q 0,-0.375356 0.07902,-0.706262 0.08396,-0.335844 0.256822,-0.587728 0.1778,-0.251883 0.454378,-0.40005 0.276578,-0.148166 0.671689,-0.148166 0.207433,0 0.360539,0.03951 0.153105,0.03951 0.261761,0.103717 0.108655,0.06421 0.1778,0.148166 0.06914,0.08396 0.103717,0.172861 0.04445,0.118534 0.01975,0.197556 -0.01975,0.07408 -0.0889,0.113594 -0.06914,0.03951 -0.153105,0.02963 -0.07902,-0.01482 -0.148167,-0.113595 -0.06421,-0.09384 -0.202495,-0.167922 -0.138289,-0.07902 -0.3556,-0.07902 -0.251883,0 -0.439561,0.118533 -0.182739,0.113595 -0.306211,0.306211 -0.123472,0.192617 -0.187678,0.4445 -0.05927,0.251884 -0.05927,0.528462 0,0.237066 0.04939,0.48895 0.05433,0.251883 0.172861,0.459317 0.118534,0.207433 0.316089,0.340783 0.197556,0.128411 0.488951,0.128411 0.06914,0 0.143227,-0.0049 0.07902,-0.0099 0.148167,-0.02469 0.07408,-0.01976 0.138289,-0.04445 0.06421,-0.02963 0.108656,-0.06421 0.08396,-0.06914 0.172861,-0.05927 0.0889,0.0049 0.153105,0.06914 0.06421,0.06421 0.06421,0.153106 0,0.0889 -0.09878,0.187677 -0.07408,0.07408 -0.172861,0.118534 -0.09878,0.04445 -0.212372,0.06914 -0.113595,0.02963 -0.232128,0.03457 -0.118534,0.0099 -0.232128,0.0099 -0.395111,0 -0.671689,-0.153105 -0.276578,-0.153106 -0.449439,-0.409928 -0.172861,-0.256823 -0.251883,-0.592667 -0.07902,-0.335845 -0.07902,-0.706261 z m 4.81542,-1.348317 h -0.765528 q -0.09878,0 -0.162984,-0.05927 -0.05927,-0.06421 -0.05927,-0.162983 0,-0.09878 0.05927,-0.158045 0.06421,-0.0642 0.162984,-0.0642 h 1.975556 q 0.09878,0 0.158044,0.0642 0.06421,0.05927 0.06421,0.158045 0,0.09878 -0.06421,0.162983 -0.05927,0.05927 -0.158044,0.05927 h -0.765528 v 2.988028 q 0,0.113595 -0.05433,0.167922 -0.05433,0.05433 -0.167922,0.05433 -0.113595,0 -0.167922,-0.05433 -0.05433,-0.05433 -0.05433,-0.167922 z"
             id="path4-7-9-4-9-4-3" />
          <path
             style="fill:#000000;fill-opacity:1;stroke:none;stroke-width:0.5;stroke-dasharray:none"
             d="m 61.676984,33.853037 c -0.06491,0 -0.112891,-0.01552 -0.143933,-0.04657 -0.03105,-0.03105 -0.04657,-0.07902 -0.04657,-0.143933 v -2.031999 c 0,-0.06491 0.01552,-0.112891 0.04657,-0.143933 0.03105,-0.03105 0.07902,-0.04657 0.143933,-0.04657 0.06491,0 0.112891,0.01552 0.143933,0.04657 0.03105,0.03105 0.04657,0.07902 0.04657,0.143933 v 0.249767 c 0.02258,-0.06773 0.06068,-0.128411 0.1143,-0.182033 0.05362,-0.05362 0.115709,-0.09878 0.186266,-0.135467 0.07055,-0.03951 0.146755,-0.06915 0.2286,-0.0889 0.08467,-0.02258 0.167922,-0.03387 0.249766,-0.03387 0.127,0 0.230011,0.02258 0.309033,0.06773 0.08185,0.04515 0.145345,0.105831 0.1905,0.182033 0.04515,0.0762 0.0762,0.1651 0.09313,0.2667 0.01693,0.1016 0.0254,0.208844 0.0254,0.321733 v 0.0508 c 0,0.06491 -0.01552,0.112891 -0.04657,0.143933 -0.03105,0.03105 -0.07902,0.04657 -0.143933,0.04657 -0.06491,0 -0.112891,-0.01552 -0.143934,-0.04657 -0.03105,-0.03105 -0.04657,-0.07902 -0.04657,-0.143933 v -0.0508 c 0,-0.06491 -0.0056,-0.12418 -0.01693,-0.1778 -0.0085,-0.05645 -0.02681,-0.104424 -0.05503,-0.143933 -0.0254,-0.04233 -0.06209,-0.07479 -0.110066,-0.09737 -0.04798,-0.0254 -0.110069,-0.0381 -0.186267,-0.0381 -0.07338,0 -0.148166,0.0099 -0.224366,0.02963 -0.0762,0.01975 -0.146756,0.0508 -0.211667,0.09313 -0.06209,0.04233 -0.112887,0.09596 -0.1524,0.160866 -0.03951,0.06209 -0.05927,0.136876 -0.05927,0.224367 v 1.333499 c 0,0.06491 -0.01552,0.112891 -0.04657,0.143933 -0.03105,0.03105 -0.07902,0.04657 -0.143933,0.04657 z m 6.540499,-1.202266 c 0,-0.217311 0.02822,-0.402166 0.08467,-0.554566 0.05645,-0.1524 0.131235,-0.276578 0.224366,-0.372533 0.09596,-0.09878 0.207433,-0.170745 0.334433,-0.2159 0.127,-0.04515 0.261055,-0.06773 0.402166,-0.06773 0.107245,0 0.2032,0.0099 0.287867,0.02963 0.08467,0.01693 0.158044,0.04092 0.220133,0.07197 0.06491,0.03105 0.119947,0.06632 0.1651,0.105833 0.04515,0.03951 0.08043,0.08044 0.105833,0.122766 0.03951,0.06491 0.05362,0.121358 0.04233,0.169334 -0.0085,0.04798 -0.03669,0.08608 -0.08467,0.114299 -0.0508,0.03105 -0.09878,0.04234 -0.143933,0.03387 -0.04515,-0.0085 -0.08043,-0.03387 -0.105834,-0.0762 -0.03105,-0.04798 -0.08467,-0.09172 -0.160866,-0.131233 -0.0762,-0.03951 -0.176389,-0.05927 -0.300567,-0.05927 -0.101599,0 -0.194732,0.01693 -0.279399,0.0508 -0.08467,0.03387 -0.158044,0.08467 -0.220133,0.1524 -0.05927,0.06773 -0.105833,0.1524 -0.1397,0.254 -0.03387,0.09878 -0.0508,0.215899 -0.0508,0.351366 0,0.138289 0.01693,0.261055 0.0508,0.3683 0.03669,0.104422 0.08466,0.191911 0.143933,0.262466 0.06209,0.07056 0.135464,0.124178 0.220133,0.160867 0.08467,0.03387 0.174978,0.0508 0.270933,0.0508 0.07338,0 0.149578,-0.0085 0.2286,-0.0254 0.07902,-0.01975 0.1397,-0.0508 0.182033,-0.09313 0.03387,-0.03387 0.07479,-0.05362 0.122767,-0.05927 0.0508,-0.0057 0.100189,0.01127 0.148166,0.0508 0.01693,0.01693 0.02963,0.03669 0.0381,0.05927 0.01129,0.01975 0.01693,0.04233 0.01693,0.06773 0,0.0254 -0.0071,0.05362 -0.02117,0.08467 -0.01411,0.02822 -0.03528,0.05926 -0.0635,0.09313 -0.03669,0.04515 -0.08043,0.08184 -0.131233,0.110066 -0.0508,0.0254 -0.105833,0.04516 -0.1651,0.05927 -0.05645,0.01411 -0.115713,0.02258 -0.1778,0.0254 -0.06209,0.0057 -0.124176,0.0085 -0.186267,0.0085 -0.155222,0 -0.297744,-0.02399 -0.427566,-0.07197 -0.129822,-0.04798 -0.2413,-0.119947 -0.334433,-0.2159 -0.09313,-0.09878 -0.166511,-0.224366 -0.220133,-0.376766 -0.0508,-0.1524 -0.0762,-0.331611 -0.0762,-0.537633 z m 3.894665,1.011766 c 0,0.06491 -0.01552,0.112891 -0.04657,0.143933 -0.03105,0.03105 -0.07903,0.04657 -0.143934,0.04657 -0.06491,0 -0.112891,-0.01552 -0.143933,-0.04657 -0.03105,-0.03105 -0.04657,-0.07902 -0.04657,-0.143933 v -2.793998 c 0,-0.06491 0.01552,-0.112891 0.04657,-0.143933 0.03105,-0.03105 0.07902,-0.04657 0.143933,-0.04657 0.06491,0 0.112891,0.01552 0.143934,0.04657 0.03105,0.03105 0.04657,0.07902 0.04657,0.143933 v 1.617132 l 0.952499,-0.956732 c 0.03105,-0.03105 0.06209,-0.05362 0.09313,-0.06773 0.03387,-0.01411 0.06914,-0.02117 0.105833,-0.02117 0.03951,0 0.07338,0.0085 0.1016,0.0254 0.02822,0.01693 0.04798,0.03951 0.05927,0.06773 0.01411,0.0254 0.01835,0.05362 0.0127,0.08467 -0.0057,0.03105 -0.0226,0.06068 -0.0508,0.0889 l -0.634999,0.6477 0.749299,1.261532 c 0.01975,0.03105 0.02963,0.06209 0.02963,0.09313 0,0.02822 -0.0071,0.05362 -0.02117,0.0762 -0.01129,0.01975 -0.02822,0.03528 -0.0508,0.04657 -0.02258,0.01411 -0.04657,0.02117 -0.07197,0.02117 -0.04798,0 -0.09455,-0.0056 -0.139699,-0.01693 -0.04515,-0.0085 -0.08467,-0.04233 -0.118534,-0.1016 l -0.647699,-1.100665 -0.3683,0.372533 z"
             id="path5-0-1-7-1-8-2"
             sodipodi:nodetypes="cssssssscsccscssssssssscccssccsssccsscssccscccscsssccscccscscccscccccssccsssssssssssscccsscccccsccsccccs" />
        </g>
        <g
           id="g4">
          <path
             id="path3-39-7-1-7-3-6"
             style="fill:none;stroke:#ffe000;stroke-width:0.35;stroke-linecap:round;stroke-dasharray:none;stroke-opacity:1"
             d="m 97.964292,109.95961 c 0.24773,0.45621 0.18714,-1.46198 -0.0905,-1.90064 -0.27762,-0.43866 -0.85828,-0.56921 -1.29693,-0.29159 l -0.38208,-0.6037 c -0.27762,-0.43866 -0.18714,1.46198 0.0905,1.90063 0.27762,0.43866 0.85828,0.46927 1.29694,0.19166 z"
             sodipodi:nodetypes="sscsscs" />
          <path
             style="fill:none;stroke:#ffe000;stroke-width:0.349999;stroke-linecap:round;stroke-dasharray:none;stroke-opacity:1"
             d="m 104.94723,111.79286 c -3.03521,0.0199 -4.77118,-0.38087 -5.884878,-1.00922 m -3.94342,-4.50102 c -1.23184,-0.93637 -3.25044,-1.71355 -7.065844,-2.04335 -0.362684,-0.0314 -0.741604,-0.0587 -1.137628,-0.0817 -1.616423,-0.0939 -3.517786,-0.11641 -5.763084,-0.0506"
             id="path7-8-2-3-2-9-9"
             sodipodi:nodetypes="cccssc" />
        </g>
      </g>
    </g>
  </g>
</svg>
